<?xml version="1.0" encoding="UTF-8"?>
<svg fill="none" viewBox="0 0 466 281" xmlns="http://www.w3.org/2000/svg">
<path d="m439.74 8.7805c0.023-1.2635 1.658-1.7484 2.366-0.70177l4.7 6.9448c0.236 0.3488 0.627 0.561 1.048 0.5686l8.384 0.1523c1.263 0.0229 1.748 1.6574 0.702 2.3656l-6.945 4.6995c-0.349 0.2361-0.561 0.6271-0.569 1.0483l-0.152 8.384c-0.023 1.2635-1.657 1.7483-2.366 0.7017l-4.699-6.9447c-0.236-0.3489-0.627-0.561-1.048-0.5686l-8.384-0.1523c-1.264-0.0229-1.749-1.6574-0.702-2.3657l6.945-4.6994c0.348-0.2361 0.561-0.6272 0.568-1.0483l0.152-8.384z" fill="#BAB80D"/>
<path d="m15.744 211.78c0.023-1.263 1.6575-1.748 2.3657-0.701l4.6995 6.944c0.236 0.349 0.6271 0.561 1.0483 0.569l8.3839 0.152c1.2636 0.023 1.7484 1.658 0.7018 2.366l-6.9447 4.699c-0.3489 0.237-0.561 0.628-0.5687 1.049l-0.1522 8.384c-0.023 1.263-1.6575 1.748-2.3657 0.702l-4.6995-6.945c-0.236-0.349-0.6271-0.561-1.0483-0.569l-8.3839-0.152c-1.2635-0.023-1.7484-1.658-0.70177-2.366l6.9447-4.699c0.3489-0.236 0.561-0.627 0.5687-1.049l0.1522-8.384z" fill="#AA98F3"/>
<path d="m431.27 52.972c1.362-1.3995 3.717-0.2169 3.408 1.7115l-2.051 12.796c-0.103 0.6428 0.114 1.2955 0.58 1.7496l9.286 9.0396c1.399 1.3623 0.217 3.7169-1.712 3.4079l-12.796-2.0505c-0.642-0.103-1.295 0.1132-1.749 0.5797l-9.04 9.2858c-1.362 1.3994-3.717 0.2169-3.408-1.7116l2.051-12.796c0.103-0.6428-0.113-1.2955-0.58-1.7495l-9.286-9.0397c-1.399-1.3623-0.217-3.7169 1.712-3.4078l12.796 2.0505c0.643 0.103 1.295-0.1133 1.749-0.5797l9.04-9.2858z" fill="#2F98FB"/>
<path d="m426.1 99.265c2.621 9.1429-0.35 19.467-8.068 30.338-7.715 10.868-20.145 22.241-36.348 33.45-32.403 22.417-79.838 44.142-134.62 59.851-54.785 15.71-106.52 22.422-145.88 20.583-19.681-0.92-36.25-3.977-48.551-9.106-12.305-5.129-20.296-12.31-22.918-21.453-2.6216-9.142 0.3499-19.466 8.067-30.337 7.7151-10.868 20.146-22.241 36.349-33.45 32.404-22.417 79.838-44.142 134.62-59.852 54.786-15.709 106.52-22.422 145.88-20.583 19.681 0.9198 36.25 3.9771 48.552 9.1054 12.305 5.1297 20.296 12.311 22.918 21.453z" opacity=".43" stroke="#D9D9D9" stroke-width=".57916"/>
</svg>
