<?xml version="1.0" encoding="UTF-8"?>
<svg fill="none" viewBox="0 0 901 652" xmlns="http://www.w3.org/2000/svg">
<g opacity=".4" stroke="#D9D9D9">
<path d="m1284.5 257.68c7.27 25.342-0.95 53.907-22.22 83.914-21.26 30.003-55.5 61.375-100.12 92.278-89.24 61.805-219.86 121.67-370.73 164.93-150.87 43.261-293.37 61.713-401.8 56.587-54.216-2.563-99.884-11.02-133.81-25.198-33.933-14.18-56.044-34.047-63.311-59.389-7.266-25.342 0.957-53.907 22.219-83.914 21.259-30.003 55.506-61.375 100.13-92.279 89.235-61.804 219.86-121.67 370.73-164.93 150.87-43.261 293.37-61.713 401.8-56.587 54.22 2.563 99.88 11.02 133.81 25.198 33.93 14.18 56.05 34.047 63.31 59.389z" opacity=".43"/>
<path d="m1080.8 316.12c4.53 15.785-0.6 33.612-13.92 52.382-13.33 18.765-34.79 38.401-62.77 57.756-55.943 38.705-137.84 76.216-232.44 103.34-94.594 27.124-183.93 38.715-251.89 35.539-33.981-1.588-62.589-6.867-83.83-15.722-21.246-8.857-35.044-21.256-39.57-37.041-4.526-15.786 0.604-33.612 13.929-52.382 13.321-18.765 34.784-38.402 62.76-57.756 55.949-38.705 137.85-76.216 232.44-103.34 94.593-27.124 183.93-38.714 251.88-35.538 33.981 1.588 62.586 6.867 83.826 15.722 21.25 8.857 35.05 21.255 39.57 37.041z" opacity=".43"/>
</g>
<path d="m266.1 512.24c-1.257-0.131-1.6-1.801-0.496-2.417l6.322-3.528c0.368-0.205 0.613-0.576 0.657-0.995l0.752-7.201c0.132-1.257 1.802-1.6 2.417-0.496l3.528 6.322c0.205 0.368 0.577 0.613 0.996 0.657l7.201 0.752c1.257 0.132 1.599 1.802 0.496 2.417l-6.323 3.528c-0.368 0.205-0.612 0.577-0.656 0.996l-0.753 7.201c-0.131 1.257-1.801 1.599-2.417 0.496l-3.528-6.323c-0.205-0.368-0.576-0.612-0.995-0.656l-7.201-0.753z" fill="#FE2784"/>
<path d="m842.1 333.24c-1.257-0.131-1.6-1.801-0.497-2.417l6.323-3.528c0.368-0.205 0.613-0.576 0.657-0.995l0.752-7.201c0.131-1.257 1.802-1.6 2.417-0.496l3.528 6.322c0.205 0.368 0.577 0.613 0.996 0.657l7.201 0.752c1.257 0.132 1.599 1.802 0.496 2.417l-6.323 3.528c-0.368 0.205-0.613 0.577-0.656 0.996l-0.753 7.201c-0.131 1.257-1.801 1.599-2.417 0.496l-3.528-6.323c-0.205-0.368-0.577-0.612-0.995-0.656l-7.201-0.753z" fill="#AA98F3"/>
<path d="m538.86 559.51c-0.78-0.994 0.18-2.402 1.39-2.039l6.934 2.084c0.404 0.122 0.841 0.039 1.172-0.221l5.694-4.472c0.994-0.781 2.402 0.18 2.039 1.39l-2.084 6.934c-0.122 0.403-0.039 0.841 0.221 1.172l4.472 5.694c0.781 0.994-0.18 2.402-1.39 2.039l-6.934-2.084c-0.403-0.122-0.841-0.039-1.172 0.221l-5.694 4.472c-0.994 0.78-2.402-0.18-2.039-1.39l2.085-6.934c0.121-0.403 0.038-0.841-0.222-1.172l-4.472-5.694z" fill="#2F98FB"/>
<path d="m184.03 574.75c-1.067 0.676-2.372-0.422-1.888-1.589l5.187-12.509c0.161-0.389 0.123-0.832-0.103-1.188l-7.246-11.439c-0.676-1.067 0.422-2.372 1.589-1.888l12.509 5.187c0.389 0.161 0.832 0.123 1.188-0.102l11.439-7.247c1.067-0.676 2.372 0.422 1.888 1.589l-5.187 12.509c-0.161 0.389-0.123 0.832 0.102 1.188l7.246 11.439c0.677 1.067-0.421 2.372-1.588 1.888l-12.509-5.187c-0.389-0.161-0.832-0.123-1.188 0.102l-11.439 7.247z" fill="#BAB80D"/>
<path d="m787.54 197.1c-1.082-0.653-0.683-2.311 0.578-2.399l13.508-0.949c0.42-0.03 0.799-0.262 1.017-0.622l6.996-11.594c0.653-1.082 2.31-0.683 2.399 0.578l0.949 13.508c0.029 0.42 0.262 0.799 0.622 1.017l11.594 6.996c1.082 0.653 0.683 2.31-0.578 2.399l-13.508 0.949c-0.42 0.029-0.799 0.261-1.017 0.622l-6.996 11.594c-0.653 1.082-2.31 0.682-2.399-0.578l-0.949-13.508c-0.029-0.42-0.262-0.8-0.622-1.017l-11.594-6.996z" fill="#FE2784"/>
</svg>
