<svg width="233" height="233" viewBox="0 0 233 233" fill="none" xmlns="http://www.w3.org/2000/svg">
<path d="M144.089 116.487C144.601 127.037 145.221 137.434 145.489 147.841C145.536 149.673 146.184 150.533 147.305 151.563C147.746 151.969 147.995 152.713 148.053 153.331C148.071 153.524 147.181 154.001 146.704 154.006C145.586 154.017 144.451 153.903 143.352 153.687C142.269 153.474 141.221 153.074 140.158 152.755C131.154 150.053 122.187 147.218 113.13 144.706C108.584 143.444 103.871 142.782 99.2395 141.817C98.7543 141.716 98.3141 141.4 97.8526 141.185C98.3181 140.497 98.6588 139.433 99.2826 139.226C99.947 139.006 100.873 139.62 101.697 139.82C101.959 139.884 102.258 139.789 102.54 139.767C102.403 139.552 102.307 139.193 102.125 139.143C99.0619 138.3 96.8648 135.971 94.1467 134.549C92.8724 133.882 91.4808 133.44 90.2035 132.778C89.8496 132.595 89.7152 131.989 89.4804 131.577C90.0519 131.345 90.6262 130.925 91.1943 130.932C91.8827 130.94 92.639 131.189 93.2376 131.547C95.0319 132.624 96.4282 131.603 97.5332 130.535C98.7476 129.361 99.8478 127.916 100.522 126.38C101.222 124.788 101.308 122.936 101.758 121.223C101.885 120.737 102.344 120.337 102.651 119.898C102.938 120.241 103.363 120.54 103.485 120.934C103.745 121.772 103.943 122.653 103.995 123.527C104.106 125.431 104.969 126.26 106.493 125.206C108.198 124.027 109.54 124.441 111.089 124.997C112.627 125.549 113.815 125.086 114.604 123.708C115.386 122.343 115.379 121.236 114.263 119.766C111.891 116.64 109.834 113.259 107.829 109.876C105.164 105.381 102.712 100.762 100.096 96.2388C97.3783 91.5403 94.5742 86.8922 91.806 82.2231C91.5719 81.8289 91.2464 81.4707 91.0978 81.0484C90.8476 80.3366 90.7053 79.587 90.5178 78.8532C91.2744 78.956 92.0666 78.9535 92.7755 79.1953C93.3336 79.3856 93.7892 79.877 94.2902 80.2349C93.9464 79.6391 93.6081 79.0402 93.2576 78.4483C92.3578 76.9287 91.3462 75.4618 90.6101 73.8667C90.3689 73.344 90.8369 72.4927 90.9809 71.7916C91.5157 72.1272 92.2631 72.3348 92.553 72.8178C95.9506 78.48 99.0938 84.3039 102.679 89.8423C106.154 95.2107 110.12 100.259 113.759 105.525C115.392 107.888 116.745 110.445 118.245 112.903C118.691 113.632 119.063 114.639 119.728 114.93C120.307 115.182 121.517 114.854 121.986 114.351C124.159 112.029 126.281 109.638 128.183 107.094C128.878 106.165 128.836 104.715 129.279 103.56C129.605 102.708 130.037 101.401 130.657 101.247C132.71 100.734 133.362 99.1697 134.243 97.6188C134.791 96.6548 135.546 95.7302 136.411 95.0416C137.837 93.9051 140.854 95.3746 141.099 97.2358C141.605 101.071 142.034 104.917 142.611 108.741C142.996 111.289 143.582 113.806 144.089 116.487ZM126.689 140.575C126.796 140.666 126.894 140.773 127.012 140.847C128.147 141.564 129.286 142.276 130.423 142.989C129.409 142.195 128.407 141.384 127.369 140.621C127.158 140.466 126.812 140.494 126.367 140.299C125.927 139.797 125.562 139.189 125.033 138.812C123.368 137.624 121.649 136.51 119.925 135.408C119.737 135.288 119.378 135.433 119.099 135.455C119.176 135.621 119.206 135.861 119.336 135.944C121.726 137.453 124.128 138.943 126.689 140.575ZM135.406 124.843C136.218 127.579 137.014 130.32 137.864 133.044C137.969 133.381 138.354 133.63 138.61 133.919C138.644 133.488 138.77 133.04 138.698 132.628C138.209 129.81 137.689 126.997 137.158 124.187C136.538 120.918 135.913 117.649 135.248 114.389C135.14 113.86 134.813 113.376 134.588 112.872C134.399 113.478 133.992 114.11 134.058 114.686C134.437 117.979 134.929 121.26 135.406 124.843ZM127.859 112.799C126.484 113.972 125.051 115.085 123.764 116.348C123.287 116.816 123.156 117.635 122.867 118.293C123.482 118.25 124.33 118.449 124.671 118.12C126.123 116.724 127.449 115.191 128.74 113.64C128.848 113.51 128.351 112.876 127.859 112.799ZM140.374 115.124C140.207 114.258 140.074 113.382 139.851 112.53C139.787 112.285 139.461 112.11 139.255 111.903C139.163 112.141 138.968 112.391 138.993 112.616C139.254 115.036 139.531 117.455 139.866 119.865C139.9 120.114 140.338 120.305 140.589 120.524C140.633 120.233 140.731 119.939 140.713 119.652C140.625 118.241 140.505 116.833 140.374 115.124ZM127.676 122.142C126.94 123.288 127.766 123.771 128.617 124.103C128.703 124.136 129.379 123.169 129.445 122.626C129.553 121.744 129.384 120.828 129.332 119.926C128.772 120.565 128.213 121.204 127.676 122.142ZM131.818 129.038C132.092 129.994 132.34 130.96 132.658 131.901C132.743 132.151 133.046 132.326 133.249 132.536C133.345 132.301 133.558 132.043 133.518 131.834C133.242 130.379 132.926 128.93 132.587 127.488C132.536 127.271 132.298 127.099 132.146 126.905C132.002 127.165 131.78 127.411 131.734 127.687C131.677 128.025 131.768 128.387 131.818 129.038ZM117.739 125.933C117.915 125.509 118.108 125.092 118.26 124.66C118.338 124.441 118.34 124.197 118.377 123.964C118.149 123.986 117.877 123.937 117.701 124.044C117.194 124.353 116.577 124.632 116.285 125.098C115.982 125.58 116.009 126.269 115.893 126.868C116.416 126.664 116.939 126.46 117.739 125.933ZM111.782 138.438C111.974 138.415 112.165 138.393 112.357 138.371C111.557 137.686 110.799 136.938 109.93 136.356C109.667 136.18 109.094 136.467 108.662 136.542C108.891 136.852 109.056 137.269 109.361 137.451C110.03 137.851 110.771 138.132 111.782 138.438ZM109.365 126.592C109.127 126.481 108.897 126.349 108.649 126.266C108.321 126.156 107.979 126.085 107.643 125.997C107.81 126.313 107.916 126.695 108.163 126.928C108.441 127.191 108.829 127.371 109.2 127.495C109.641 127.642 110.116 127.693 110.575 127.785C110.272 127.379 109.968 126.974 109.365 126.592ZM115.968 130.285C116.921 130.728 117.874 131.173 118.829 131.613C119.006 131.694 119.195 131.753 119.378 131.822C119.296 131.653 119.258 131.399 119.124 131.328C117.9 130.675 116.659 130.055 115.424 129.425C115.498 129.62 115.572 129.814 115.968 130.285ZM141.251 146.049C141.051 145.225 140.864 144.398 140.628 143.585C140.605 143.504 140.289 143.508 140.108 143.473C140.277 144.18 140.432 144.891 140.624 145.591C140.673 145.768 140.84 145.913 141.251 146.049ZM104.19 133.619C103.78 134.358 103.845 134.614 104.781 135.214C105.035 135.378 105.429 135.324 105.759 135.371C105.503 135.015 105.258 134.649 104.984 134.307C104.855 134.146 104.671 134.031 104.19 133.619ZM125.445 120.512C126.11 120.043 126.779 119.577 127.428 119.085C127.443 119.073 127.244 118.777 127.144 118.614C126.705 118.99 126.259 119.359 125.828 119.745C125.675 119.881 125.556 120.056 125.445 120.512ZM131.357 123.056C131.564 123.513 131.768 123.971 131.993 124.418C132.001 124.433 132.229 124.336 132.355 124.292C132.114 123.772 131.873 123.253 131.357 123.056Z" fill="#BAB80D"/>
</svg>
