<?xml version="1.0" encoding="UTF-8"?>
<svg fill="none" viewBox="0 0 124 33" xmlns="http://www.w3.org/2000/svg">
<path d="m15.006 8.0666c-0.9215-0.66437-1.8433-1.04-2.9955-1.04-2.8223 0-4.435 2.4844-4.435 5.1134 0 5.4023 6.5665 5.0843 6.5665 9.5043 0 1.7334-1.037 3.438-2.909 3.438-1.267 0-2.275-0.6934-3.1103-1.56v2.311c0.864 0.6356 1.9295 1.011 3.024 1.011 2.9375 0 4.8095-2.6577 4.8095-5.431 0-5.3444-6.5664-5.0556-6.5664-9.5044 0-1.6466 1.0082-3.1489 2.765-3.1489 1.2673 0 2.0735 0.63564 2.8513 1.56v-2.2534zm9.4512 18.489v-9.7933c0-1.82-0.403-3.3223-2.5055-3.3223-1.008 0-1.872 0.52-2.5057 1.2423v-9.1867h-1.6125v21.06h1.6127v-8.6956c0-0.7511 0-1.589 0.432-2.2534 0.317-0.52 0.9215-0.8377 1.5265-0.8377 1.4112 0 1.44 1.3577 1.44 2.3977v9.389h1.6125zm7.44-4.3913c-0.0287 1.098-0.2302 3.0623-1.6702 3.0623-1.8433 0-2.0448-3.2066-2.0448-4.5066v-0.289h5.443c0-0.26 0.029-0.5487 0.029-0.8087 0-2.2823-0.4607-6.1823-3.485-6.1823-3.139 0-3.6287 4.3623-3.6287 6.7023 0 2.4843 0.432 6.6154 3.744 6.6154 2.5345 0 3.168-2.5134 3.2545-4.5934h-1.6418zm-3.6862-3.12c0.0575-1.1843 0.3167-4.102 1.987-4.102 1.6417 0 1.7857 2.9466 1.8432 4.102h-3.8302zm15.105 5.1713c-0.691 0.4621-1.4975 0.8667-2.3615 0.8667-0.9218 0-1.6418-0.4334-2.16-1.1846-1.0658-1.5311-1.2673-5.1711-1.2673-7.0488 0-2.4266 0.1151-8.0889 3.5713-8.0889 0.8352 0 1.5552 0.40437 2.2175 0.83771v-1.9644c-0.691-0.43334-1.4975-0.60667-2.304-0.60667-4.896 0-5.2993 6.8467-5.2993 10.4 0 2.3977 0.1728 5.489 1.6418 7.5111 0.8065 1.0979 2.0737 1.8779 3.456 1.8779 0.8927 0 1.7567-0.3179 2.5055-0.809v-1.791zm8.1475-4.0446c0-2.4844-0.2592-6.731-3.6-6.731-3.312 0-3.7729 4.131-3.7729 6.6443 0 2.5134 0.4609 6.6734 3.7729 6.6734s3.6-4.1311 3.6-6.5867zm-1.6702-0.0867c0 1.3-0.0578 5.1423-1.9587 5.1423-1.9583 0-2.0446-3.64-2.0446-4.9977 0-1.3579 0.0573-5.2866 2.0446-5.2866 1.9009 0 1.9587 3.842 1.9587 5.142zm10.461 6.4713v-21.06h-1.6128v9.0133c-0.5762-0.7223-1.1232-1.0689-2.045-1.0689-3.1967 0-3.1967 4.2466-3.1967 6.76 0 2.2533 0.0577 6.5577 3.024 6.5577 1.0082 0 1.6415-0.4621 2.2177-1.2421v1.04h1.6128zm-1.469-6.4423c0 1.069 0 4.1023-0.7775 4.8823-0.288 0.3177-0.6335 0.4333-1.0658 0.4333-1.4973 0-1.67-1.8489-1.7567-2.9756-0.0865-1.04-0.0865-2.051-0.0865-3.12 0-1.271 0.029-4.5933 1.8722-4.5933 1.6705 0 1.8143 2.6577 1.8143 5.3733zm9.2246 2.051c-0.029 1.098-0.2305 3.0623-1.6705 3.0623-1.8433 0-2.045-3.2066-2.045-4.5066v-0.289h5.4432c0-0.26 0.0288-0.5487 0.0288-0.8087 0-2.2823-0.4605-6.1823-3.4848-6.1823-3.139 0-3.6285 4.3623-3.6285 6.7023 0 2.4843 0.4318 6.6154 3.7438 6.6154 2.5345 0 3.168-2.5134 3.2545-4.5934h-1.6415zm-3.6867-3.12c0.0577-1.1843 0.3167-4.102 1.9872-4.102 1.6417 0 1.7857 2.9466 1.8432 4.102h-3.8304zm12.714-4.7666c-0.72-0.52-1.44-0.8377-2.304-0.8377-1.8717 0-3.1967 1.3866-3.1967 3.2643 0 3.12 4.1472 3.9867 4.1472 6.529 0 1.069-0.72 1.9933-1.872 1.9933-0.9217 0-1.6417-0.6066-2.2752-1.271v1.9067c0.6912 0.5487 1.5262 0.8954 2.3905 0.8954 2.0447 0 3.4557-1.6467 3.4557-3.64 0-3.4954-4.147-3.9577-4.147-6.4711 0-0.9243 0.6335-1.7043 1.584-1.7043 0.9217 0 1.6417 0.6354 2.2175 1.3287v-1.9933z" fill="#fff"/>
<g filter="url(#a)">
<path d="m85.964 8c-3.9248 0-6.9636 4.493-6.9636 10.168s3.0187 10.139 6.9636 10.139c3.9254 0 6.9642-4.4635 6.9642-10.139s-3.0388-10.168-6.9642-10.168zm0 19.125c-3.4617 0-6.038-3.9314-6.038-8.9565 0-5.0546 2.5763-8.986 6.038-8.986 3.4623 0 6.0386 3.9314 6.0386 8.986 0 5.0251-2.5763 8.9565-6.0386 8.9565zm10.744-18.859h-0.8855v19.716h0.8855v-8.8973l0.3622-0.5025 6.3197 9.3998h1.208l-6.8835-10.287 6.5015-9.4295h-1.168l-6.3399 9.2817v-9.2817zm19.887 2.3057c-0.403-0.5617-1.952-2.5717-4.508-2.5717-3.865 0-6.965 4.493-6.965 10.168 0 5.498 2.979 10.139 7.005 10.139 1.449 0 3.099-0.6799 4.468-2.4534v-1.7145c-1.369 2.1874-3.16 2.9855-4.508 2.9855-2.718 0-6.039-3.0446-6.039-8.8973 0-4.9956 2.576-9.0452 6.018-9.0452 1.731 0 3.381 1.1232 4.529 3.1037v-1.7144z" fill="#FE2784"/>
</g>
<defs>
<filter id="a" x="79" y="8" width="37.595" height="24.307" color-interpolation-filters="sRGB" filterUnits="userSpaceOnUse">
<feFlood flood-opacity="0" result="BackgroundImageFix"/>
<feBlend in="SourceGraphic" in2="BackgroundImageFix" result="shape"/>
<feColorMatrix in="SourceAlpha" result="hardAlpha" values="0 0 0 0 0 0 0 0 0 0 0 0 0 0 0 0 0 0 127 0"/>
<feOffset dy="4"/>
<feGaussianBlur stdDeviation="2"/>
<feComposite in2="hardAlpha" k2="-1" k3="1" operator="arithmetic"/>
<feColorMatrix values="0 0 0 0 0 0 0 0 0 0 0 0 0 0 0 0 0 0 0.05 0"/>
<feBlend in2="shape" result="effect1_innerShadow_1_52"/>
</filter>
</defs>
</svg>
