<?xml version="1.0" encoding="UTF-8"?> <svg xmlns="http://www.w3.org/2000/svg" fill="none" viewBox="0 0 318 114"><path d="M35.362 26.6c-4.07-2.913-8.141-4.56-13.23-4.56-12.465 0-19.588 10.893-19.588 22.42 0 23.687 29.002 22.293 29.002 41.673 0 7.6-4.58 15.074-12.848 15.074-5.596 0-10.048-3.04-13.737-6.84V104.5c3.816 2.787 8.522 4.433 13.356 4.433 12.974 0 21.242-11.653 21.242-23.813 0-23.433-29.002-22.167-29.002-41.673 0-7.22 4.453-13.807 12.212-13.807 5.597 0 9.158 2.787 12.593 6.84V26.6Zm41.743 81.067v-42.94c0-7.98-1.78-14.567-11.066-14.567-4.452 0-8.268 2.28-11.067 5.447v-40.28H47.85v92.34h7.123V69.54c0-3.293 0-6.967 1.908-9.88 1.4-2.28 4.07-3.673 6.742-3.673 6.233 0 6.36 5.953 6.36 10.513v41.167h7.123Zm32.86-19.254c-.127 4.814-1.017 13.427-7.377 13.427-8.141 0-9.031-14.06-9.031-19.76v-1.267h24.04c0-1.14.128-2.406.128-3.546 0-10.007-2.035-27.107-15.392-27.107-13.864 0-16.027 19.127-16.027 29.387 0 10.893 1.908 29.006 16.536 29.006 11.194 0 13.992-11.02 14.374-20.14h-7.251Zm-16.281-13.68c.254-5.193 1.399-17.986 8.776-17.986 7.251 0 7.887 12.92 8.141 17.986H93.684Zm66.713 22.674c-3.052 2.026-6.614 3.8-10.43 3.8-4.071 0-7.251-1.9-9.54-5.194-4.707-6.713-5.597-22.673-5.597-30.906 0-10.64.508-35.467 15.773-35.467 3.689 0 6.869 1.773 9.794 3.673V24.7c-3.052-1.9-6.614-2.66-10.176-2.66-21.624 0-23.405 30.02-23.405 45.6 0 10.513.763 24.067 7.251 32.933 3.562 4.814 9.159 8.234 15.264 8.234 3.943 0 7.759-1.394 11.066-3.547v-7.853Zm35.985-17.734c0-10.893-1.145-29.513-15.9-29.513-14.628 0-16.664 18.113-16.664 29.133s2.036 29.26 16.664 29.26c14.628 0 15.9-18.113 15.9-28.88Zm-7.377-.38c0 5.7-.255 22.547-8.651 22.547-8.649 0-9.03-15.96-9.03-21.913 0-5.954.253-23.18 9.03-23.18 8.396 0 8.651 16.846 8.651 22.546Zm46.204 28.374v-92.34h-7.123v39.52c-2.545-3.167-4.961-4.687-9.032-4.687-14.119 0-14.119 18.62-14.119 29.64 0 9.88.255 28.753 13.356 28.753 4.453 0 7.25-2.026 9.795-5.446v4.56h7.123Zm-6.488-28.247c0 4.687 0 17.987-3.434 21.407-1.272 1.393-2.798 1.9-4.707 1.9-6.613 0-7.376-8.107-7.759-13.047-.382-4.56-.382-8.993-.382-13.68 0-5.573.128-20.14 8.269-20.14 7.378 0 8.013 11.653 8.013 23.56Zm40.742 8.993c-.128 4.814-1.018 13.427-7.378 13.427-8.141 0-9.032-14.06-9.032-19.76v-1.267h24.041c0-1.14.127-2.406.127-3.546 0-10.007-2.034-27.107-15.391-27.107-13.864 0-16.026 19.127-16.026 29.387 0 10.893 1.907 29.006 16.535 29.006 11.194 0 13.992-11.02 14.374-20.14h-7.25Zm-16.283-13.68c.255-5.193 1.399-17.986 8.777-17.986 7.251 0 7.887 12.92 8.141 17.986H253.18Zm56.156-20.9c-3.18-2.28-6.36-3.673-10.176-3.673-8.267 0-14.119 6.08-14.119 14.313 0 13.68 18.317 17.48 18.317 28.627 0 4.687-3.18 8.74-8.268 8.74-4.071 0-7.251-2.66-10.049-5.573v8.36c3.053 2.406 6.741 3.926 10.558 3.926 9.031 0 15.263-7.22 15.263-15.96 0-15.326-18.316-17.353-18.316-28.373 0-4.053 2.798-7.473 6.996-7.473 4.071 0 7.251 2.786 9.794 5.826v-8.74Z" fill="#fff"></path><g filter="url(#a)"><path d="M253.007 15.088c-7.465 0-13.245 7.446-13.245 16.85 0 9.404 5.742 16.8 13.245 16.8 7.467 0 13.247-7.396 13.247-16.8s-5.78-16.85-13.247-16.85Zm0 31.691c-6.584 0-11.484-6.514-11.484-14.841 0-8.376 4.9-14.89 11.484-14.89 6.586 0 11.486 6.514 11.486 14.89 0 8.327-4.9 14.841-11.486 14.841Zm20.437-31.25h-1.684V48.2h1.684V33.457l.689-.832L286.154 48.2h2.297l-13.093-17.046 12.366-15.625h-2.221l-12.059 15.38V15.53Zm37.826 3.82c-.766-.93-3.713-4.26-8.575-4.26-7.351 0-13.247 7.444-13.247 16.849 0 9.11 5.666 16.8 13.323 16.8 2.756 0 5.895-1.126 8.499-4.065v-2.84c-2.604 3.624-6.01 4.946-8.575 4.946-5.169 0-11.486-5.045-11.486-14.743 0-8.278 4.9-14.988 11.447-14.988 3.293 0 6.431 1.86 8.614 5.143V19.35Z" fill="#FF6EEC"></path></g><defs><filter id="a" x="239.762" y="15.088" width="71.507" height="37.65" filterUnits="userSpaceOnUse" color-interpolation-filters="sRGB"><feFlood flood-opacity="0" result="BackgroundImageFix"></feFlood><feBlend in="SourceGraphic" in2="BackgroundImageFix" result="shape"></feBlend><feColorMatrix in="SourceAlpha" values="0 0 0 0 0 0 0 0 0 0 0 0 0 0 0 0 0 0 127 0" result="hardAlpha"></feColorMatrix><feOffset dy="4"></feOffset><feGaussianBlur stdDeviation="2"></feGaussianBlur><feComposite in2="hardAlpha" operator="arithmetic" k2="-1" k3="1"></feComposite><feColorMatrix values="0 0 0 0 0 0 0 0 0 0 0 0 0 0 0 0 0 0 0.05 0"></feColorMatrix><feBlend in2="shape" result="effect1_innerShadow_33_3"></feBlend></filter></defs></svg> 